<svg width="306" height="62" viewBox="0 0 306 62" fill="none" xmlns="http://www.w3.org/2000/svg">
<path d="M47.9728 36.5579C45.7445 37.9688 43.1852 38.7109 40.5775 38.7021C38.3929 38.6841 36.233 38.2186 34.2208 37.3323C32.67 39.6129 31.8401 42.3402 31.8464 45.1349V52.272C31.8469 52.5374 31.7951 52.8001 31.6941 53.0438C31.5931 53.2875 31.445 53.5069 31.2592 53.6885C31.0733 53.87 30.8536 54.0099 30.6137 54.0993C30.3738 54.1887 30.1188 54.2257 29.8645 54.2081C29.3868 54.1648 28.9424 53.935 28.6205 53.5647C28.2987 53.1944 28.1231 52.711 28.129 52.2115V49.2008L19.1562 39.8541C17.8223 40.3725 16.4117 40.6436 14.9881 40.6552C13.0283 40.6602 11.1051 40.1017 9.4306 39.041C4.368 35.8367 1.6427 28.4624 2.1701 19.3069C2.19666 18.8333 2.38926 18.3862 2.71134 18.0507C3.03342 17.7152 3.46255 17.5146 3.91727 17.487C12.7065 16.9473 19.7858 19.7764 22.8526 25.05C24.0576 27.117 24.5836 29.5365 24.3512 31.9426C24.3368 32.129 24.2708 32.3071 24.1612 32.4553C24.0517 32.6035 23.9033 32.7155 23.734 32.7777C23.5647 32.8399 23.3817 32.8496 23.2071 32.8058C23.0326 32.762 22.8739 32.6664 22.7504 32.5307L18.2896 27.6662C17.9382 27.3184 17.4702 27.1274 16.9856 27.1339C16.5009 27.1403 16.0378 27.3438 15.6951 27.7008C15.3523 28.0578 15.157 28.5402 15.1508 29.045C15.1446 29.5499 15.328 30.0373 15.6618 30.4034L28.1801 43.7748C28.194 43.586 28.2103 43.3973 28.2289 43.2109C28.6354 39.6212 30.156 36.2679 32.5596 33.6609L44.3135 20.7227C44.6623 20.3597 44.8583 19.8673 44.8586 19.3538C44.8588 18.8402 44.6631 18.3476 44.3147 17.9843C43.9662 17.621 43.4935 17.4168 43.0005 17.4166C42.5075 17.4163 42.0346 17.6201 41.6858 17.9831L30.3013 30.5244C30.1874 30.6501 30.0432 30.7418 29.8837 30.7898C29.7242 30.8378 29.5553 30.8405 29.3946 30.7975C29.2338 30.7545 29.087 30.6675 28.9694 30.5454C28.8519 30.4233 28.7678 30.2706 28.7261 30.1033C27.6248 25.8728 28.1104 21.6617 30.213 18.046C34.3626 10.9114 44.0184 7.09235 56.0441 7.82808C56.4989 7.85574 56.928 8.05636 57.2501 8.39186C57.5722 8.72736 57.7648 9.17438 57.7913 9.64804C58.4883 22.1772 54.8221 32.2354 47.9728 36.5579Z" fill="white"/>
<path d="M82.3298 48.6223C81.6425 48.6223 81.0081 48.358 80.4265 47.8293C79.845 47.3534 79.5542 46.7719 79.5542 46.0846V20.4694C79.5542 19.0419 80.0036 17.9581 80.9024 17.2179C81.8011 16.4778 82.8057 16.1077 83.9159 16.1077H92.3221C94.1197 16.1077 95.7851 16.4778 97.3183 17.2179C98.9044 17.9052 100.173 18.9362 101.125 20.3108C102.077 21.6854 102.552 23.3772 102.552 25.3862C102.552 28.5055 101.548 30.9904 99.5388 32.8408C97.5826 34.6912 95.2035 35.6165 92.4014 35.6165H87.0881C85.7663 35.6165 85.1055 36.4095 85.1055 37.9956V46.0846C85.1055 46.7719 84.8147 47.3534 84.2331 47.8293C83.7044 48.358 83.07 48.6223 82.3298 48.6223ZM86.6916 30.8582H91.5291C92.8508 30.8582 94.1197 30.4617 95.3357 29.6687C96.6046 28.8756 97.239 27.501 97.239 25.5448C97.239 24.0116 96.6574 22.8749 95.4943 22.1348C94.384 21.3417 93.168 20.9452 91.8463 20.9452H86.9295C85.6077 20.9452 84.9469 21.5796 84.9469 22.8485V28.717C84.9469 30.1445 85.5284 30.8582 86.6916 30.8582Z" fill="white"/>
<path d="M110.431 48.6223C109.744 48.6223 109.11 48.4108 108.528 47.9879C107.999 47.5649 107.735 46.9569 107.735 46.1639V16.0284C107.735 15.1296 107.999 14.4687 108.528 14.0458C109.11 13.5699 109.744 13.332 110.431 13.332C111.119 13.332 111.727 13.5699 112.255 14.0458C112.837 14.4687 113.128 15.1296 113.128 16.0284V46.1639C113.128 46.9569 112.837 47.5649 112.255 47.9879C111.727 48.4108 111.119 48.6223 110.431 48.6223Z" fill="white"/>
<path d="M129.892 48.6223C127.618 48.6223 125.583 48.0936 123.785 47.0362C121.988 45.9788 120.587 44.5249 119.582 42.6745C118.578 40.7712 118.075 38.6564 118.075 36.3302C118.075 34.0568 118.578 32.0213 119.582 30.2238C120.587 28.4262 121.988 27.0252 123.785 26.0207C125.583 24.9633 127.618 24.4346 129.892 24.4346C131.372 24.4346 132.694 24.6989 133.857 25.2276C135.02 25.7035 136.025 26.3379 136.871 27.1309C136.976 26.3908 137.293 25.8356 137.822 25.4655C138.351 25.0426 138.932 24.8311 139.567 24.8311C140.254 24.8311 140.862 25.069 141.391 25.5448C141.972 25.9678 142.263 26.6287 142.263 27.5274V46.1639C142.263 46.9569 141.972 47.5649 141.391 47.9879C140.862 48.4108 140.254 48.6223 139.567 48.6223C138.88 48.6223 138.245 48.4108 137.664 47.9879C137.135 47.5649 136.871 46.9569 136.871 46.1639V45.8467C136.025 46.6926 135.02 47.3534 133.857 47.8293C132.694 48.358 131.372 48.6223 129.892 48.6223ZM130.368 43.7055C132.377 43.7055 133.963 43.0446 135.126 41.7229C136.289 40.3483 136.871 38.5507 136.871 36.3302C136.871 34.2154 136.289 32.5236 135.126 31.2547C133.963 29.9859 132.377 29.3514 130.368 29.3514C128.306 29.3514 126.64 29.9859 125.371 31.2547C124.103 32.5236 123.468 34.2154 123.468 36.3302C123.468 38.5507 124.103 40.3483 125.371 41.7229C126.64 43.0446 128.306 43.7055 130.368 43.7055Z" fill="white"/>
<path d="M168.144 48.6223C167.457 48.6223 166.822 48.4108 166.241 47.9879C165.712 47.5649 165.448 46.9569 165.448 46.1639V36.1716C165.448 33.8453 164.919 32.1271 163.862 31.0168C162.857 29.9066 161.509 29.3514 159.817 29.3514C157.65 29.3514 156.064 30.0652 155.059 31.4926C154.107 32.8672 153.632 34.4005 153.632 36.0923V46.1639C153.632 46.9569 153.341 47.5649 152.759 47.9879C152.231 48.4108 151.623 48.6223 150.935 48.6223C150.248 48.6223 149.613 48.4108 149.032 47.9879C148.503 47.5649 148.239 46.9569 148.239 46.1639V27.5274C148.239 26.6287 148.503 25.9678 149.032 25.5448C149.613 25.069 150.248 24.8311 150.935 24.8311C151.623 24.8311 152.231 25.069 152.759 25.5448C153.341 25.9678 153.632 26.6287 153.632 27.5274C154.53 26.6287 155.693 25.8885 157.121 25.3069C158.548 24.7254 159.897 24.4346 161.165 24.4346C164.126 24.4346 166.479 25.3862 168.223 27.2895C169.968 29.1928 170.841 31.9949 170.841 35.6958V46.1639C170.841 46.9569 170.55 47.5649 169.968 47.9879C169.387 48.4108 168.779 48.6223 168.144 48.6223Z" fill="white"/>
<path d="M185.778 48.6223C183.716 48.6223 182.024 47.9879 180.702 46.719C179.38 45.4501 178.719 43.5469 178.719 41.0091V30.9375C178.719 30.4088 178.455 30.1445 177.926 30.1445H176.499C175.812 30.1445 175.23 29.933 174.754 29.51C174.278 29.0342 174.041 28.4527 174.041 27.7654C174.041 27.0252 174.278 26.4172 174.754 25.9414C175.23 25.4655 175.812 25.2276 176.499 25.2276H177.926C178.455 25.2276 178.719 24.9633 178.719 24.4346V17.7731C178.719 17.0329 178.957 16.4513 179.433 16.0284C179.962 15.5525 180.596 15.3146 181.337 15.3146C182.13 15.3146 182.764 15.5525 183.24 16.0284C183.769 16.4513 184.033 17.0329 184.033 17.7731V24.4346C184.033 24.9633 184.297 25.2276 184.826 25.2276H189.108C189.743 25.2276 190.298 25.4655 190.774 25.9414C191.25 26.4172 191.487 27.0252 191.487 27.7654C191.487 28.4527 191.25 29.0342 190.774 29.51C190.351 29.933 189.769 30.1445 189.029 30.1445H184.826C184.297 30.1445 184.033 30.4088 184.033 30.9375V40.2954C184.033 42.5159 184.932 43.6262 186.729 43.6262C187.258 43.6262 187.813 43.5469 188.395 43.3882C188.976 43.2296 189.373 43.1503 189.584 43.1503C190.324 43.1503 190.879 43.3882 191.25 43.8641C191.672 44.3399 191.884 44.895 191.884 45.5294C191.884 46.0053 191.752 46.4811 191.487 46.9569C191.223 47.3799 190.8 47.6971 190.219 47.9086C189.637 48.12 188.897 48.2787 187.998 48.3844C187.152 48.543 186.412 48.6223 185.778 48.6223Z" fill="white"/>
<path d="M206.098 48.6223C203.825 48.6223 201.789 48.0936 199.992 47.0362C198.194 45.9788 196.793 44.5249 195.788 42.6745C194.784 40.7712 194.282 38.6564 194.282 36.3302C194.282 34.0568 194.784 32.0213 195.788 30.2238C196.793 28.4262 198.194 27.0252 199.992 26.0207C201.789 24.9633 203.825 24.4346 206.098 24.4346C207.578 24.4346 208.9 24.6989 210.063 25.2276C211.226 25.7035 212.231 26.3379 213.077 27.1309C213.182 26.3908 213.5 25.8356 214.028 25.4655C214.557 25.0426 215.139 24.8311 215.773 24.8311C216.46 24.8311 217.068 25.069 217.597 25.5448C218.179 25.9678 218.469 26.6287 218.469 27.5274V46.1639C218.469 46.9569 218.179 47.5649 217.597 47.9879C217.068 48.4108 216.46 48.6223 215.773 48.6223C215.086 48.6223 214.451 48.4108 213.87 47.9879C213.341 47.5649 213.077 46.9569 213.077 46.1639V45.8467C212.231 46.6926 211.226 47.3534 210.063 47.8293C208.9 48.358 207.578 48.6223 206.098 48.6223ZM206.574 43.7055C208.583 43.7055 210.169 43.0446 211.332 41.7229C212.495 40.3483 213.077 38.5507 213.077 36.3302C213.077 34.2154 212.495 32.5236 211.332 31.2547C210.169 29.9859 208.583 29.3514 206.574 29.3514C204.512 29.3514 202.846 29.9859 201.578 31.2547C200.309 32.5236 199.674 34.2154 199.674 36.3302C199.674 38.5507 200.309 40.3483 201.578 41.7229C202.846 43.0446 204.512 43.7055 206.574 43.7055Z" fill="white"/>
<path d="M233.406 48.6223C231.344 48.6223 229.653 47.9879 228.331 46.719C227.009 45.4501 226.348 43.5469 226.348 41.0091V30.9375C226.348 30.4088 226.084 30.1445 225.555 30.1445H224.128C223.441 30.1445 222.859 29.933 222.383 29.51C221.907 29.0342 221.669 28.4527 221.669 27.7654C221.669 27.0252 221.907 26.4172 222.383 25.9414C222.859 25.4655 223.441 25.2276 224.128 25.2276H225.555C226.084 25.2276 226.348 24.9633 226.348 24.4346V17.7731C226.348 17.0329 226.586 16.4513 227.062 16.0284C227.591 15.5525 228.225 15.3146 228.965 15.3146C229.758 15.3146 230.393 15.5525 230.869 16.0284C231.397 16.4513 231.662 17.0329 231.662 17.7731V24.4346C231.662 24.9633 231.926 25.2276 232.455 25.2276H236.737C237.372 25.2276 237.927 25.4655 238.403 25.9414C238.878 26.4172 239.116 27.0252 239.116 27.7654C239.116 28.4527 238.878 29.0342 238.403 29.51C237.98 29.933 237.398 30.1445 236.658 30.1445H232.455C231.926 30.1445 231.662 30.4088 231.662 30.9375V40.2954C231.662 42.5159 232.56 43.6262 234.358 43.6262C234.887 43.6262 235.442 43.5469 236.023 43.3882C236.605 43.2296 237.002 43.1503 237.213 43.1503C237.953 43.1503 238.508 43.3882 238.878 43.8641C239.301 44.3399 239.513 44.895 239.513 45.5294C239.513 46.0053 239.381 46.4811 239.116 46.9569C238.852 47.3799 238.429 47.6971 237.847 47.9086C237.266 48.12 236.526 48.2787 235.627 48.3844C234.781 48.543 234.041 48.6223 233.406 48.6223Z" fill="white"/>
<path d="M246.272 48.6223C245.585 48.6223 244.951 48.4108 244.369 47.9879C243.84 47.5649 243.576 46.9569 243.576 46.1639V27.1309C243.576 26.2321 243.84 25.5713 244.369 25.1483C244.951 24.6725 245.585 24.4346 246.272 24.4346C246.96 24.4346 247.568 24.6725 248.096 25.1483C248.678 25.5713 248.969 26.2321 248.969 27.1309V46.1639C248.969 46.9569 248.678 47.5649 248.096 47.9879C247.568 48.4108 246.96 48.6223 246.272 48.6223ZM246.352 20.0729C245.347 20.0729 244.475 19.7557 243.734 19.1212C243.047 18.4339 242.704 17.6144 242.704 16.6628C242.704 15.764 243.047 14.9974 243.734 14.363C244.475 13.6757 245.347 13.332 246.352 13.332C247.303 13.332 248.123 13.6757 248.81 14.363C249.497 14.9974 249.841 15.764 249.841 16.6628C249.841 17.6144 249.497 18.4339 248.81 19.1212C248.123 19.7557 247.303 20.0729 246.352 20.0729Z" fill="white"/>
<path d="M266.129 48.6223C263.803 48.6223 261.688 48.0936 259.785 47.0362C257.934 45.9788 256.481 44.5249 255.423 42.6745C254.366 40.7712 253.837 38.6564 253.837 36.3302C253.837 34.0568 254.366 32.0213 255.423 30.2238C256.481 28.4262 257.934 27.0252 259.785 26.0207C261.688 24.9633 263.803 24.4346 266.129 24.4346C268.455 24.4346 270.544 24.9633 272.394 26.0207C274.245 27.0252 275.699 28.4262 276.756 30.2238C277.866 32.0213 278.421 34.0568 278.421 36.3302C278.421 38.6564 277.866 40.7712 276.756 42.6745C275.699 44.5249 274.245 45.9788 272.394 47.0362C270.544 48.0936 268.455 48.6223 266.129 48.6223ZM266.129 43.7055C268.191 43.7055 269.856 43.0446 271.125 41.7229C272.394 40.3483 273.029 38.5507 273.029 36.3302C273.029 34.2154 272.394 32.5236 271.125 31.2547C269.856 29.9859 268.191 29.3514 266.129 29.3514C264.014 29.3514 262.323 29.9859 261.054 31.2547C259.838 32.5236 259.23 34.2154 259.23 36.3302C259.23 38.5507 259.838 40.3483 261.054 41.7229C262.323 43.0446 264.014 43.7055 266.129 43.7055Z" fill="white"/>
<path d="M303.054 48.6223C302.367 48.6223 301.732 48.4108 301.151 47.9879C300.622 47.5649 300.358 46.9569 300.358 46.1639V36.1716C300.358 33.8453 299.829 32.1271 298.771 31.0168C297.767 29.9066 296.419 29.3514 294.727 29.3514C292.559 29.3514 290.973 30.0652 289.969 31.4926C289.017 32.8672 288.541 34.4005 288.541 36.0923V46.1639C288.541 46.9569 288.25 47.5649 287.669 47.9879C287.14 48.4108 286.532 48.6223 285.845 48.6223C285.158 48.6223 284.523 48.4108 283.942 47.9879C283.413 47.5649 283.149 46.9569 283.149 46.1639V27.5274C283.149 26.6287 283.413 25.9678 283.942 25.5448C284.523 25.069 285.158 24.8311 285.845 24.8311C286.532 24.8311 287.14 25.069 287.669 25.5448C288.25 25.9678 288.541 26.6287 288.541 27.5274C289.44 26.6287 290.603 25.8885 292.031 25.3069C293.458 24.7254 294.806 24.4346 296.075 24.4346C299.036 24.4346 301.388 25.3862 303.133 27.2895C304.878 29.1928 305.75 31.9949 305.75 35.6958V46.1639C305.75 46.9569 305.459 47.5649 304.878 47.9879C304.296 48.4108 303.688 48.6223 303.054 48.6223Z" fill="white"/>
</svg>
