<svg width="186" height="39" viewBox="0 0 186 39" fill="none" xmlns="http://www.w3.org/2000/svg">
<path d="M29.4321 22.8771C28.0834 23.7311 26.5343 24.1803 24.956 24.175C23.6337 24.164 22.3264 23.8823 21.1084 23.3459C20.1698 24.7262 19.6674 26.377 19.6712 28.0685V32.3883C19.6716 32.549 19.6402 32.708 19.5791 32.8555C19.5179 33.003 19.4283 33.1358 19.3158 33.2457C19.2033 33.3556 19.0704 33.4402 18.9251 33.4943C18.7799 33.5484 18.6256 33.5709 18.4717 33.5602C18.1825 33.534 17.9136 33.3949 17.7187 33.1707C17.5239 32.9466 17.4176 32.654 17.4212 32.3517V30.5294L11.9902 24.8722C11.1829 25.186 10.3291 25.3501 9.46739 25.3571C8.28117 25.3601 7.11716 25.022 6.10361 24.38C3.03937 22.4406 1.38982 17.9772 1.70904 12.4357C1.72511 12.149 1.84169 11.8784 2.03664 11.6754C2.23158 11.4723 2.49133 11.3509 2.76655 11.3341C8.08644 11.0075 12.3713 12.7199 14.2276 15.9118C14.9569 17.1629 15.2753 18.6273 15.1346 20.0836C15.1259 20.1965 15.086 20.3043 15.0197 20.394C14.9534 20.4837 14.8635 20.5514 14.761 20.5891C14.6586 20.6267 14.5478 20.6326 14.4421 20.6061C14.3365 20.5796 14.2405 20.5218 14.1657 20.4396L11.4657 17.4953C11.253 17.2848 10.9698 17.1692 10.6764 17.1731C10.3831 17.177 10.1028 17.3001 9.89532 17.5162C9.68786 17.7323 9.56966 18.0243 9.5659 18.3299C9.56214 18.6354 9.67313 18.9304 9.87521 19.152L17.4522 27.2453C17.4606 27.131 17.4704 27.0168 17.4817 26.904C17.7277 24.7312 18.6481 22.7016 20.103 21.1237L27.2172 13.2926C27.4283 13.0729 27.547 12.7749 27.5471 12.464C27.5473 12.1532 27.4289 11.8551 27.2179 11.6352C27.007 11.4153 26.7209 11.2917 26.4225 11.2915C26.1241 11.2914 25.8379 11.4147 25.6268 11.6344L18.7361 19.2252C18.6671 19.3014 18.5798 19.3568 18.4833 19.3859C18.3868 19.415 18.2845 19.4166 18.1872 19.3906C18.0899 19.3645 18.0011 19.3118 17.9299 19.238C17.8587 19.1641 17.8079 19.0717 17.7826 18.9704C17.1161 16.4098 17.41 13.861 18.6826 11.6725C21.1942 7.35416 27.0386 5.04263 34.3175 5.48794C34.5927 5.50469 34.8524 5.62612 35.0474 5.82919C35.2423 6.03225 35.3589 6.30282 35.375 6.58951C35.7969 14.173 33.5778 20.2609 29.4321 22.8771Z" fill="#D9D389"/>
<path d="M50.2249 30.1803C49.8089 30.1803 49.4249 30.0203 49.0729 29.7003C48.7209 29.4123 48.5449 29.0603 48.5449 28.6443V13.1403C48.5449 12.2763 48.8169 11.6203 49.3609 11.1723C49.9049 10.7243 50.5129 10.5003 51.1849 10.5003H56.273C57.361 10.5003 58.369 10.7243 59.297 11.1723C60.257 11.5883 61.025 12.2123 61.601 13.0443C62.177 13.8763 62.465 14.9003 62.465 16.1163C62.465 18.0043 61.857 19.5083 60.641 20.6283C59.457 21.7483 58.017 22.3083 56.321 22.3083H53.105C52.305 22.3083 51.905 22.7883 51.905 23.7483V28.6443C51.905 29.0603 51.729 29.4123 51.3769 29.7003C51.0569 30.0203 50.6729 30.1803 50.2249 30.1803ZM52.865 19.4283H55.793C56.593 19.4283 57.361 19.1883 58.097 18.7083C58.865 18.2283 59.249 17.3963 59.249 16.2123C59.249 15.2843 58.897 14.5963 58.193 14.1483C57.521 13.6683 56.785 13.4283 55.985 13.4283H53.009C52.209 13.4283 51.809 13.8123 51.809 14.5803V18.1323C51.809 18.9963 52.161 19.4283 52.865 19.4283Z" fill="#D9D389"/>
<path d="M67.234 30.1803C66.818 30.1803 66.434 30.0523 66.082 29.7963C65.762 29.5403 65.602 29.1723 65.602 28.6923V10.4523C65.602 9.90831 65.762 9.50831 66.082 9.25231C66.434 8.96431 66.818 8.82031 67.234 8.82031C67.65 8.82031 68.018 8.96431 68.338 9.25231C68.69 9.50831 68.866 9.90831 68.866 10.4523V28.6923C68.866 29.1723 68.69 29.5403 68.338 29.7963C68.018 30.0523 67.65 30.1803 67.234 30.1803Z" fill="#D9D389"/>
<path d="M79.0128 30.1803C77.6368 30.1803 76.4048 29.8603 75.3168 29.2203C74.2288 28.5803 73.3808 27.7003 72.7728 26.5803C72.1648 25.4283 71.8608 24.1483 71.8608 22.7403C71.8608 21.3643 72.1648 20.1323 72.7728 19.0443C73.3808 17.9563 74.2288 17.1083 75.3168 16.5003C76.4048 15.8603 77.6368 15.5403 79.0128 15.5403C79.9088 15.5403 80.7088 15.7003 81.4128 16.0203C82.1169 16.3083 82.7249 16.6923 83.2369 17.1723C83.3009 16.7243 83.4929 16.3883 83.8129 16.1643C84.1329 15.9083 84.4849 15.7803 84.8689 15.7803C85.2849 15.7803 85.6529 15.9243 85.9729 16.2123C86.3249 16.4683 86.5009 16.8683 86.5009 17.4123V28.6923C86.5009 29.1723 86.3249 29.5403 85.9729 29.7963C85.6529 30.0523 85.2849 30.1803 84.8689 30.1803C84.4529 30.1803 84.0689 30.0523 83.7169 29.7963C83.3969 29.5403 83.2369 29.1723 83.2369 28.6923V28.5003C82.7249 29.0123 82.1169 29.4123 81.4128 29.7003C80.7088 30.0203 79.9088 30.1803 79.0128 30.1803ZM79.3008 27.2043C80.5168 27.2043 81.4768 26.8043 82.1809 26.0043C82.8849 25.1723 83.2369 24.0843 83.2369 22.7403C83.2369 21.4603 82.8849 20.4363 82.1809 19.6683C81.4768 18.9003 80.5168 18.5163 79.3008 18.5163C78.0528 18.5163 77.0448 18.9003 76.2768 19.6683C75.5088 20.4363 75.1248 21.4603 75.1248 22.7403C75.1248 24.0843 75.5088 25.1723 76.2768 26.0043C77.0448 26.8043 78.0528 27.2043 79.3008 27.2043Z" fill="#D9D389"/>
<path d="M102.166 30.1803C101.75 30.1803 101.366 30.0523 101.014 29.7963C100.694 29.5403 100.534 29.1723 100.534 28.6923V22.6443C100.534 21.2363 100.214 20.1963 99.5739 19.5243C98.9659 18.8523 98.1499 18.5163 97.1259 18.5163C95.8139 18.5163 94.8538 18.9483 94.2458 19.8123C93.6698 20.6443 93.3818 21.5723 93.3818 22.5963V28.6923C93.3818 29.1723 93.2058 29.5403 92.8538 29.7963C92.5338 30.0523 92.1658 30.1803 91.7498 30.1803C91.3338 30.1803 90.9498 30.0523 90.5978 29.7963C90.2778 29.5403 90.1178 29.1723 90.1178 28.6923V17.4123C90.1178 16.8683 90.2778 16.4683 90.5978 16.2123C90.9498 15.9243 91.3338 15.7803 91.7498 15.7803C92.1658 15.7803 92.5338 15.9243 92.8538 16.2123C93.2058 16.4683 93.3818 16.8683 93.3818 17.4123C93.9258 16.8683 94.6298 16.4203 95.4939 16.0683C96.3579 15.7163 97.1739 15.5403 97.9419 15.5403C99.7339 15.5403 101.158 16.1163 102.214 17.2683C103.27 18.4203 103.798 20.1163 103.798 22.3563V28.6923C103.798 29.1723 103.622 29.5403 103.27 29.7963C102.918 30.0523 102.55 30.1803 102.166 30.1803Z" fill="#D9D389"/>
<path d="M112.839 30.1803C111.591 30.1803 110.567 29.7963 109.767 29.0283C108.967 28.2603 108.567 27.1083 108.567 25.5723V19.4763C108.567 19.1563 108.407 18.9963 108.087 18.9963H107.223C106.807 18.9963 106.455 18.8683 106.167 18.6123C105.879 18.3243 105.735 17.9723 105.735 17.5563C105.735 17.1083 105.879 16.7403 106.167 16.4523C106.455 16.1643 106.807 16.0203 107.223 16.0203H108.087C108.407 16.0203 108.567 15.8603 108.567 15.5403V11.5083C108.567 11.0603 108.711 10.7083 108.999 10.4523C109.319 10.1643 109.703 10.0203 110.151 10.0203C110.631 10.0203 111.015 10.1643 111.303 10.4523C111.623 10.7083 111.783 11.0603 111.783 11.5083V15.5403C111.783 15.8603 111.943 16.0203 112.263 16.0203H114.855C115.239 16.0203 115.575 16.1643 115.863 16.4523C116.151 16.7403 116.295 17.1083 116.295 17.5563C116.295 17.9723 116.151 18.3243 115.863 18.6123C115.607 18.8683 115.255 18.9963 114.807 18.9963H112.263C111.943 18.9963 111.783 19.1563 111.783 19.4763V25.1403C111.783 26.4843 112.327 27.1563 113.415 27.1563C113.735 27.1563 114.071 27.1083 114.423 27.0123C114.775 26.9163 115.015 26.8683 115.143 26.8683C115.591 26.8683 115.927 27.0123 116.151 27.3003C116.407 27.5883 116.535 27.9243 116.535 28.3083C116.535 28.5963 116.455 28.8843 116.295 29.1723C116.135 29.4283 115.879 29.6203 115.527 29.7483C115.175 29.8763 114.727 29.9723 114.183 30.0363C113.671 30.1323 113.223 30.1803 112.839 30.1803Z" fill="#D9D389"/>
<path d="M125.138 30.1803C123.762 30.1803 122.53 29.8603 121.442 29.2203C120.354 28.5803 119.506 27.7003 118.898 26.5803C118.29 25.4283 117.986 24.1483 117.986 22.7403C117.986 21.3643 118.29 20.1323 118.898 19.0443C119.506 17.9563 120.354 17.1083 121.442 16.5003C122.53 15.8603 123.762 15.5403 125.138 15.5403C126.034 15.5403 126.834 15.7003 127.538 16.0203C128.242 16.3083 128.85 16.6923 129.362 17.1723C129.426 16.7243 129.618 16.3883 129.938 16.1643C130.258 15.9083 130.61 15.7803 130.994 15.7803C131.41 15.7803 131.778 15.9243 132.098 16.2123C132.45 16.4683 132.626 16.8683 132.626 17.4123V28.6923C132.626 29.1723 132.45 29.5403 132.098 29.7963C131.778 30.0523 131.41 30.1803 130.994 30.1803C130.578 30.1803 130.194 30.0523 129.842 29.7963C129.522 29.5403 129.362 29.1723 129.362 28.6923V28.5003C128.85 29.0123 128.242 29.4123 127.538 29.7003C126.834 30.0203 126.034 30.1803 125.138 30.1803ZM125.426 27.2043C126.642 27.2043 127.602 26.8043 128.306 26.0043C129.01 25.1723 129.362 24.0843 129.362 22.7403C129.362 21.4603 129.01 20.4363 128.306 19.6683C127.602 18.9003 126.642 18.5163 125.426 18.5163C124.178 18.5163 123.17 18.9003 122.402 19.6683C121.634 20.4363 121.25 21.4603 121.25 22.7403C121.25 24.0843 121.634 25.1723 122.402 26.0043C123.17 26.8043 124.178 27.2043 125.426 27.2043Z" fill="#D9D389"/>
<path d="M141.667 30.1803C140.419 30.1803 139.395 29.7963 138.595 29.0283C137.795 28.2603 137.395 27.1083 137.395 25.5723V19.4763C137.395 19.1563 137.235 18.9963 136.915 18.9963H136.051C135.635 18.9963 135.283 18.8683 134.995 18.6123C134.707 18.3243 134.563 17.9723 134.563 17.5563C134.563 17.1083 134.707 16.7403 134.995 16.4523C135.283 16.1643 135.635 16.0203 136.051 16.0203H136.915C137.235 16.0203 137.395 15.8603 137.395 15.5403V11.5083C137.395 11.0603 137.539 10.7083 137.827 10.4523C138.147 10.1643 138.531 10.0203 138.979 10.0203C139.459 10.0203 139.843 10.1643 140.131 10.4523C140.451 10.7083 140.611 11.0603 140.611 11.5083V15.5403C140.611 15.8603 140.771 16.0203 141.091 16.0203H143.683C144.067 16.0203 144.403 16.1643 144.691 16.4523C144.979 16.7403 145.123 17.1083 145.123 17.5563C145.123 17.9723 144.979 18.3243 144.691 18.6123C144.435 18.8683 144.083 18.9963 143.635 18.9963H141.091C140.771 18.9963 140.611 19.1563 140.611 19.4763V25.1403C140.611 26.4843 141.155 27.1563 142.243 27.1563C142.563 27.1563 142.899 27.1083 143.251 27.0123C143.603 26.9163 143.843 26.8683 143.971 26.8683C144.419 26.8683 144.755 27.0123 144.979 27.3003C145.235 27.5883 145.363 27.9243 145.363 28.3083C145.363 28.5963 145.283 28.8843 145.123 29.1723C144.963 29.4283 144.707 29.6203 144.355 29.7483C144.003 29.8763 143.555 29.9723 143.011 30.0363C142.499 30.1323 142.051 30.1803 141.667 30.1803Z" fill="#D9D389"/>
<path d="M149.455 30.1803C149.039 30.1803 148.655 30.0523 148.303 29.7963C147.983 29.5403 147.823 29.1723 147.823 28.6923V17.1723C147.823 16.6283 147.983 16.2283 148.303 15.9723C148.655 15.6843 149.039 15.5403 149.455 15.5403C149.871 15.5403 150.239 15.6843 150.559 15.9723C150.911 16.2283 151.087 16.6283 151.087 17.1723V28.6923C151.087 29.1723 150.911 29.5403 150.559 29.7963C150.239 30.0523 149.871 30.1803 149.455 30.1803ZM149.503 12.9003C148.895 12.9003 148.367 12.7083 147.919 12.3243C147.503 11.9083 147.295 11.4123 147.295 10.8363C147.295 10.2923 147.503 9.82831 147.919 9.44431C148.367 9.02831 148.895 8.82031 149.503 8.82031C150.079 8.82031 150.575 9.02831 150.991 9.44431C151.407 9.82831 151.615 10.2923 151.615 10.8363C151.615 11.4123 151.407 11.9083 150.991 12.3243C150.575 12.7083 150.079 12.9003 149.503 12.9003Z" fill="#D9D389"/>
<path d="M161.473 30.1803C160.065 30.1803 158.785 29.8603 157.633 29.2203C156.513 28.5803 155.633 27.7003 154.993 26.5803C154.353 25.4283 154.033 24.1483 154.033 22.7403C154.033 21.3643 154.353 20.1323 154.993 19.0443C155.633 17.9563 156.513 17.1083 157.633 16.5003C158.785 15.8603 160.065 15.5403 161.473 15.5403C162.881 15.5403 164.145 15.8603 165.265 16.5003C166.386 17.1083 167.266 17.9563 167.906 19.0443C168.578 20.1323 168.914 21.3643 168.914 22.7403C168.914 24.1483 168.578 25.4283 167.906 26.5803C167.266 27.7003 166.386 28.5803 165.265 29.2203C164.145 29.8603 162.881 30.1803 161.473 30.1803ZM161.473 27.2043C162.721 27.2043 163.729 26.8043 164.497 26.0043C165.265 25.1723 165.649 24.0843 165.649 22.7403C165.649 21.4603 165.265 20.4363 164.497 19.6683C163.729 18.9003 162.721 18.5163 161.473 18.5163C160.193 18.5163 159.169 18.9003 158.401 19.6683C157.665 20.4363 157.297 21.4603 157.297 22.7403C157.297 24.0843 157.665 25.1723 158.401 26.0043C159.169 26.8043 160.193 27.2043 161.473 27.2043Z" fill="#D9D389"/>
<path d="M183.823 30.1803C183.407 30.1803 183.023 30.0523 182.671 29.7963C182.351 29.5403 182.191 29.1723 182.191 28.6923V22.6443C182.191 21.2363 181.871 20.1963 181.231 19.5243C180.623 18.8523 179.807 18.5163 178.783 18.5163C177.471 18.5163 176.511 18.9483 175.903 19.8123C175.327 20.6443 175.039 21.5723 175.039 22.5963V28.6923C175.039 29.1723 174.863 29.5403 174.511 29.7963C174.191 30.0523 173.823 30.1803 173.407 30.1803C172.991 30.1803 172.607 30.0523 172.255 29.7963C171.935 29.5403 171.775 29.1723 171.775 28.6923V17.4123C171.775 16.8683 171.935 16.4683 172.255 16.2123C172.607 15.9243 172.991 15.7803 173.407 15.7803C173.823 15.7803 174.191 15.9243 174.511 16.2123C174.863 16.4683 175.039 16.8683 175.039 17.4123C175.583 16.8683 176.287 16.4203 177.151 16.0683C178.015 15.7163 178.831 15.5403 179.599 15.5403C181.391 15.5403 182.815 16.1163 183.871 17.2683C184.927 18.4203 185.455 20.1163 185.455 22.3563V28.6923C185.455 29.1723 185.279 29.5403 184.927 29.7963C184.575 30.0523 184.207 30.1803 183.823 30.1803Z" fill="#D9D389"/>
</svg>
