<svg width="124" height="25" viewBox="0 0 124 25" fill="none" xmlns="http://www.w3.org/2000/svg">
<path d="M19.258 14.754C18.3588 15.3233 17.3261 15.6228 16.2739 15.6192C15.3924 15.612 14.5208 15.4241 13.7089 15.0665C13.0831 15.9867 12.7482 17.0872 12.7508 18.2149V21.0948C12.751 21.2019 12.7301 21.3079 12.6893 21.4063C12.6486 21.5046 12.5888 21.5931 12.5138 21.6664C12.4388 21.7397 12.3502 21.7961 12.2534 21.8321C12.1566 21.8682 12.0537 21.8832 11.9511 21.8761C11.7583 21.8586 11.579 21.7658 11.4491 21.6164C11.3192 21.467 11.2484 21.272 11.2508 21.0704V19.8556L7.63014 16.0841C7.09192 16.2932 6.52271 16.4026 5.94827 16.4073C5.15746 16.4094 4.38146 16.184 3.70577 15.756C1.66295 14.463 0.563267 11.4874 0.77608 7.79307C0.786795 7.60194 0.864511 7.42157 0.994474 7.28619C1.12444 7.15081 1.2976 7.06986 1.48108 7.05869C5.02764 6.84092 7.8842 7.98252 9.12171 10.1105C9.60791 10.9445 9.82017 11.9208 9.72639 12.8917C9.72056 12.9669 9.69394 13.0388 9.64974 13.0986C9.60554 13.1584 9.54566 13.2036 9.47733 13.2287C9.40901 13.2538 9.33517 13.2577 9.26474 13.24C9.1943 13.2223 9.1303 13.1838 9.08045 13.129L7.28046 11.1661C7.13866 11.0258 6.94985 10.9487 6.75427 10.9513C6.5587 10.9539 6.37185 11.036 6.23355 11.1801C6.09524 11.3241 6.01644 11.5188 6.01394 11.7225C6.01143 11.9262 6.08543 12.1229 6.22014 12.2706L11.2714 17.6661C11.277 17.5899 11.2836 17.5138 11.2911 17.4386C11.4551 15.9901 12.0687 14.637 13.0386 13.5851L17.7814 8.36436C17.9221 8.21789 18.0012 8.01919 18.0013 7.81197C18.0014 7.60475 17.9225 7.40597 17.7819 7.25938C17.6413 7.11278 17.4505 7.03038 17.2516 7.03029C17.0526 7.03019 16.8618 7.11243 16.7211 7.25889L12.1273 12.3194C12.0813 12.3702 12.0232 12.4072 11.9588 12.4265C11.8945 12.4459 11.8263 12.447 11.7614 12.4296C11.6966 12.4123 11.6373 12.3772 11.5899 12.3279C11.5425 12.2786 11.5085 12.217 11.4917 12.1495C11.0473 10.4425 11.2433 8.74327 12.0917 7.28428C13.7661 4.40537 17.6623 2.86436 22.5148 3.16123C22.6983 3.1724 22.8715 3.25335 23.0014 3.38873C23.1314 3.52411 23.2091 3.70448 23.2198 3.89561C23.5011 8.95127 22.0217 13.0099 19.258 14.754Z" fill="black"/>
<path d="M33.12 19.6209C32.8427 19.6209 32.5867 19.5142 32.352 19.3009C32.1173 19.1089 32 18.8742 32 18.5969V8.26086C32 7.68486 32.1813 7.24753 32.544 6.94886C32.9067 6.65019 33.312 6.50086 33.76 6.50086H37.152C37.8773 6.50086 38.5493 6.65019 39.168 6.94886C39.808 7.22619 40.32 7.64219 40.704 8.19686C41.088 8.75153 41.28 9.43419 41.28 10.2449C41.28 11.5035 40.8747 12.5062 40.064 13.2529C39.2747 13.9995 38.3147 14.3729 37.184 14.3729H35.04C34.5067 14.3729 34.24 14.6929 34.24 15.3329V18.5969C34.24 18.8742 34.1227 19.1089 33.888 19.3009C33.6747 19.5142 33.4187 19.6209 33.12 19.6209ZM34.88 12.4529H36.832C37.3653 12.4529 37.8773 12.2929 38.368 11.9729C38.88 11.6529 39.136 11.0982 39.136 10.3089C39.136 9.69019 38.9013 9.23153 38.432 8.93286C37.984 8.61286 37.4933 8.45286 36.96 8.45286H34.976C34.4427 8.45286 34.176 8.70886 34.176 9.22086V11.5889C34.176 12.1649 34.4107 12.4529 34.88 12.4529Z" fill="black"/>
<path d="M44.4592 19.6209C44.1819 19.6209 43.9259 19.5355 43.6912 19.3649C43.4779 19.1942 43.3713 18.9489 43.3713 18.6289V6.46886C43.3713 6.10619 43.4779 5.83953 43.6912 5.66886C43.9259 5.47686 44.1819 5.38086 44.4592 5.38086C44.7366 5.38086 44.9819 5.47686 45.1952 5.66886C45.4299 5.83953 45.5472 6.10619 45.5472 6.46886V18.6289C45.5472 18.9489 45.4299 19.1942 45.1952 19.3649C44.9819 19.5355 44.7366 19.6209 44.4592 19.6209Z" fill="black"/>
<path d="M52.3118 19.6209C51.3944 19.6209 50.5731 19.4075 49.8477 18.9809C49.1224 18.5542 48.5571 17.9675 48.1518 17.2209C47.7464 16.4529 47.5437 15.5995 47.5437 14.6609C47.5437 13.7435 47.7464 12.9222 48.1518 12.1969C48.5571 11.4715 49.1224 10.9062 49.8477 10.5009C50.5731 10.0742 51.3944 9.86086 52.3118 9.86086C52.9091 9.86086 53.4424 9.96753 53.9118 10.1809C54.3811 10.3729 54.7864 10.6289 55.1278 10.9489C55.1704 10.6502 55.2984 10.4262 55.5118 10.2769C55.7251 10.1062 55.9597 10.0209 56.2157 10.0209C56.4931 10.0209 56.7384 10.1169 56.9517 10.3089C57.1864 10.4795 57.3038 10.7462 57.3038 11.1089V18.6289C57.3038 18.9489 57.1864 19.1942 56.9517 19.3649C56.7384 19.5355 56.4931 19.6209 56.2157 19.6209C55.9384 19.6209 55.6824 19.5355 55.4478 19.3649C55.2344 19.1942 55.1278 18.9489 55.1278 18.6289V18.5009C54.7864 18.8422 54.3811 19.1089 53.9118 19.3009C53.4424 19.5142 52.9091 19.6209 52.3118 19.6209ZM52.5037 17.6369C53.3144 17.6369 53.9544 17.3702 54.4237 16.8369C54.8931 16.2822 55.1278 15.5569 55.1278 14.6609C55.1278 13.8075 54.8931 13.1249 54.4237 12.6129C53.9544 12.1009 53.3144 11.8449 52.5037 11.8449C51.6717 11.8449 50.9998 12.1009 50.4878 12.6129C49.9758 13.1249 49.7197 13.8075 49.7197 14.6609C49.7197 15.5569 49.9758 16.2822 50.4878 16.8369C50.9998 17.3702 51.6717 17.6369 52.5037 17.6369Z" fill="black"/>
<path d="M67.747 19.6209C67.4697 19.6209 67.2137 19.5355 66.979 19.3649C66.7657 19.1942 66.659 18.9489 66.659 18.6289V14.5969C66.659 13.6582 66.4457 12.9649 66.019 12.5169C65.6137 12.0689 65.0697 11.8449 64.387 11.8449C63.5123 11.8449 62.8723 12.1329 62.467 12.7089C62.083 13.2635 61.891 13.8822 61.891 14.5649V18.6289C61.891 18.9489 61.7737 19.1942 61.539 19.3649C61.3257 19.5355 61.0803 19.6209 60.803 19.6209C60.5257 19.6209 60.2697 19.5355 60.035 19.3649C59.8217 19.1942 59.715 18.9489 59.715 18.6289V11.1089C59.715 10.7462 59.8217 10.4795 60.035 10.3089C60.2697 10.1169 60.5257 10.0209 60.803 10.0209C61.0803 10.0209 61.3257 10.1169 61.539 10.3089C61.7737 10.4795 61.891 10.7462 61.891 11.1089C62.2537 10.7462 62.723 10.4475 63.299 10.2129C63.875 9.97819 64.419 9.86086 64.931 9.86086C66.1257 9.86086 67.075 10.2449 67.779 11.0129C68.483 11.7809 68.835 12.9115 68.835 14.4049V18.6289C68.835 18.9489 68.7177 19.1942 68.483 19.3649C68.2483 19.5355 68.003 19.6209 67.747 19.6209Z" fill="black"/>
<path d="M74.8623 19.6209C74.0303 19.6209 73.3476 19.3649 72.8143 18.8529C72.2809 18.3409 72.0143 17.5729 72.0143 16.5489V12.4849C72.0143 12.2715 71.9076 12.1649 71.6942 12.1649H71.1183C70.8409 12.1649 70.6063 12.0795 70.4142 11.9089C70.2222 11.7169 70.1263 11.4822 70.1263 11.2049C70.1263 10.9062 70.2222 10.6609 70.4142 10.4689C70.6063 10.2769 70.8409 10.1809 71.1183 10.1809H71.6942C71.9076 10.1809 72.0143 10.0742 72.0143 9.86086V7.17286C72.0143 6.87419 72.1102 6.63953 72.3022 6.46886C72.5156 6.27686 72.7716 6.18086 73.0703 6.18086C73.3903 6.18086 73.6462 6.27686 73.8382 6.46886C74.0516 6.63953 74.1582 6.87419 74.1582 7.17286V9.86086C74.1582 10.0742 74.2649 10.1809 74.4782 10.1809H76.2062C76.4622 10.1809 76.6862 10.2769 76.8783 10.4689C77.0703 10.6609 77.1663 10.9062 77.1663 11.2049C77.1663 11.4822 77.0703 11.7169 76.8783 11.9089C76.7076 12.0795 76.4729 12.1649 76.1743 12.1649H74.4782C74.2649 12.1649 74.1582 12.2715 74.1582 12.4849V16.2609C74.1582 17.1569 74.5209 17.6049 75.2463 17.6049C75.4596 17.6049 75.6836 17.5729 75.9183 17.5089C76.1529 17.4449 76.3129 17.4129 76.3983 17.4129C76.6969 17.4129 76.9209 17.5089 77.0703 17.7009C77.2409 17.8929 77.3262 18.1169 77.3262 18.3729C77.3262 18.5649 77.2729 18.7569 77.1663 18.9489C77.0596 19.1195 76.8889 19.2475 76.6543 19.3329C76.4196 19.4182 76.1209 19.4822 75.7583 19.5249C75.4169 19.5889 75.1183 19.6209 74.8623 19.6209Z" fill="black"/>
<path d="M83.0618 19.6209C82.1444 19.6209 81.3231 19.4075 80.5978 18.9809C79.8724 18.5542 79.3071 17.9675 78.9017 17.2209C78.4964 16.4529 78.2938 15.5995 78.2938 14.6609C78.2938 13.7435 78.4964 12.9222 78.9017 12.1969C79.3071 11.4715 79.8724 10.9062 80.5978 10.5009C81.3231 10.0742 82.1444 9.86086 83.0618 9.86086C83.6591 9.86086 84.1924 9.96753 84.6618 10.1809C85.1311 10.3729 85.5364 10.6289 85.8778 10.9489C85.9204 10.6502 86.0484 10.4262 86.2617 10.2769C86.4751 10.1062 86.7098 10.0209 86.9658 10.0209C87.2431 10.0209 87.4884 10.1169 87.7018 10.3089C87.9364 10.4795 88.0537 10.7462 88.0537 11.1089V18.6289C88.0537 18.9489 87.9364 19.1942 87.7018 19.3649C87.4884 19.5355 87.2431 19.6209 86.9658 19.6209C86.6884 19.6209 86.4324 19.5355 86.1978 19.3649C85.9844 19.1942 85.8778 18.9489 85.8778 18.6289V18.5009C85.5364 18.8422 85.1311 19.1089 84.6618 19.3009C84.1924 19.5142 83.6591 19.6209 83.0618 19.6209ZM83.2537 17.6369C84.0644 17.6369 84.7044 17.3702 85.1738 16.8369C85.6431 16.2822 85.8778 15.5569 85.8778 14.6609C85.8778 13.8075 85.6431 13.1249 85.1738 12.6129C84.7044 12.1009 84.0644 11.8449 83.2537 11.8449C82.4217 11.8449 81.7498 12.1009 81.2378 12.6129C80.7257 13.1249 80.4697 13.8075 80.4697 14.6609C80.4697 15.5569 80.7257 16.2822 81.2378 16.8369C81.7498 17.3702 82.4217 17.6369 83.2537 17.6369Z" fill="black"/>
<path d="M94.081 19.6209C93.249 19.6209 92.5663 19.3649 92.033 18.8529C91.4997 18.3409 91.233 17.5729 91.233 16.5489V12.4849C91.233 12.2715 91.1263 12.1649 90.913 12.1649H90.337C90.0597 12.1649 89.825 12.0795 89.633 11.9089C89.441 11.7169 89.345 11.4822 89.345 11.2049C89.345 10.9062 89.441 10.6609 89.633 10.4689C89.825 10.2769 90.0597 10.1809 90.337 10.1809H90.913C91.1263 10.1809 91.233 10.0742 91.233 9.86086V7.17286C91.233 6.87419 91.329 6.63953 91.521 6.46886C91.7343 6.27686 91.9903 6.18086 92.289 6.18086C92.609 6.18086 92.865 6.27686 93.057 6.46886C93.2703 6.63953 93.377 6.87419 93.377 7.17286V9.86086C93.377 10.0742 93.4837 10.1809 93.697 10.1809H95.425C95.681 10.1809 95.905 10.2769 96.097 10.4689C96.289 10.6609 96.385 10.9062 96.385 11.2049C96.385 11.4822 96.289 11.7169 96.097 11.9089C95.9263 12.0795 95.6917 12.1649 95.393 12.1649H93.697C93.4837 12.1649 93.377 12.2715 93.377 12.4849V16.2609C93.377 17.1569 93.7397 17.6049 94.465 17.6049C94.6783 17.6049 94.9023 17.5729 95.137 17.5089C95.3717 17.4449 95.5317 17.4129 95.617 17.4129C95.9157 17.4129 96.1397 17.5089 96.289 17.7009C96.4597 17.8929 96.545 18.1169 96.545 18.3729C96.545 18.5649 96.4917 18.7569 96.385 18.9489C96.2783 19.1195 96.1077 19.2475 95.873 19.3329C95.6383 19.4182 95.3397 19.4822 94.977 19.5249C94.6357 19.5889 94.337 19.6209 94.081 19.6209Z" fill="black"/>
<path d="M99.2725 19.6209C98.9952 19.6209 98.7392 19.5355 98.5045 19.3649C98.2912 19.1942 98.1845 18.9489 98.1845 18.6289V10.9489C98.1845 10.5862 98.2912 10.3195 98.5045 10.1489C98.7392 9.95686 98.9952 9.86086 99.2725 9.86086C99.5498 9.86086 99.7952 9.95686 100.008 10.1489C100.243 10.3195 100.36 10.5862 100.36 10.9489V18.6289C100.36 18.9489 100.243 19.1942 100.008 19.3649C99.7952 19.5355 99.5498 19.6209 99.2725 19.6209ZM99.3045 8.10086C98.8992 8.10086 98.5472 7.97286 98.2485 7.71686C97.9712 7.43953 97.8325 7.10886 97.8325 6.72486C97.8325 6.36219 97.9712 6.05286 98.2485 5.79686C98.5472 5.51953 98.8992 5.38086 99.3045 5.38086C99.6885 5.38086 100.019 5.51953 100.297 5.79686C100.574 6.05286 100.713 6.36219 100.713 6.72486C100.713 7.10886 100.574 7.43953 100.297 7.71686C100.019 7.97286 99.6885 8.10086 99.3045 8.10086Z" fill="black"/>
<path d="M107.285 19.6209C106.346 19.6209 105.493 19.4075 104.725 18.9809C103.978 18.5542 103.392 17.9675 102.965 17.2209C102.538 16.4529 102.325 15.5995 102.325 14.6609C102.325 13.7435 102.538 12.9222 102.965 12.1969C103.392 11.4715 103.978 10.9062 104.725 10.5009C105.493 10.0742 106.346 9.86086 107.285 9.86086C108.224 9.86086 109.066 10.0742 109.813 10.5009C110.56 10.9062 111.146 11.4715 111.573 12.1969C112.021 12.9222 112.245 13.7435 112.245 14.6609C112.245 15.5995 112.021 16.4529 111.573 17.2209C111.146 17.9675 110.56 18.5542 109.813 18.9809C109.066 19.4075 108.224 19.6209 107.285 19.6209ZM107.285 17.6369C108.117 17.6369 108.789 17.3702 109.301 16.8369C109.813 16.2822 110.069 15.5569 110.069 14.6609C110.069 13.8075 109.813 13.1249 109.301 12.6129C108.789 12.1009 108.117 11.8449 107.285 11.8449C106.432 11.8449 105.749 12.1009 105.237 12.6129C104.746 13.1249 104.501 13.8075 104.501 14.6609C104.501 15.5569 104.746 16.2822 105.237 16.8369C105.749 17.3702 106.432 17.6369 107.285 17.6369Z" fill="black"/>
<path d="M122.185 19.6209C121.907 19.6209 121.651 19.5355 121.417 19.3649C121.203 19.1942 121.096 18.9489 121.096 18.6289V14.5969C121.096 13.6582 120.883 12.9649 120.456 12.5169C120.051 12.0689 119.507 11.8449 118.825 11.8449C117.95 11.8449 117.31 12.1329 116.905 12.7089C116.521 13.2635 116.328 13.8822 116.328 14.5649V18.6289C116.328 18.9489 116.211 19.1942 115.977 19.3649C115.763 19.5355 115.518 19.6209 115.241 19.6209C114.963 19.6209 114.707 19.5355 114.473 19.3649C114.259 19.1942 114.152 18.9489 114.152 18.6289V11.1089C114.152 10.7462 114.259 10.4795 114.473 10.3089C114.707 10.1169 114.963 10.0209 115.241 10.0209C115.518 10.0209 115.763 10.1169 115.977 10.3089C116.211 10.4795 116.328 10.7462 116.328 11.1089C116.691 10.7462 117.161 10.4475 117.737 10.2129C118.312 9.97819 118.856 9.86086 119.368 9.86086C120.563 9.86086 121.512 10.2449 122.216 11.0129C122.921 11.7809 123.272 12.9115 123.272 14.4049V18.6289C123.272 18.9489 123.155 19.1942 122.921 19.3649C122.686 19.5355 122.44 19.6209 122.185 19.6209Z" fill="black"/>
</svg>
